<svg width="428" height="142" viewBox="0 0 428 142" fill="none" xmlns="http://www.w3.org/2000/svg">
<path fill-rule="evenodd" clip-rule="evenodd" d="M0 46.6093L8 33.195C16 21.2711 32 -4.06701 48 1.89491C63 7.85683 79 46.6093 95 55.5522C111 65.9855 103 52.5712 119 55.5522C135 58.5331 182 1.89491 198 15.3092C214 27.2331 222 103.248 238 80.8903C254 60.0236 269 15.3092 285 4.87587C301 -4.06701 317 21.2711 333 27.2331C349 33.195 365 21.2711 380 15.3092C396 7.85683 412 7.85683 420 7.85683H428V142H420C412 142 396 142 380 142C365 142 349 142 333 142C317 142 301 142 285 142C269 142 254 142 238 142C222 142 206 142 190 142C174 142 159 142 143 142C127 142 111 142 95 142C79 142 63 142 48 142C32 142 16 142 8 142H0V46.6093Z" fill="url(#paint0_linear_0_1900)" stroke="#F2994A"/>
<defs>
<linearGradient id="paint0_linear_0_1900" x1="214" y1="1" x2="214" y2="289.454" gradientUnits="userSpaceOnUse">
<stop stop-color="#E5B369"/>
<stop offset="1" stop-color="#E5B369"/>
</linearGradient>
</defs>
</svg>
