<svg width="428" height="143" viewBox="0 0 428 143" fill="none" xmlns="http://www.w3.org/2000/svg">
    <path fill-rule="evenodd" clip-rule="evenodd"
        d="M0 46.9328L8 33.4233C16 21.4149 32 -4.10295 48 1.90126C63 7.90546 79 46.9328 95 55.9391C111 66.4464 127 46.9328 143 49.9349C159 52.937 174 78.4548 190 91.9643C206 103.973 222 103.973 238 81.4569C254 60.4422 269 15.4107 285 4.90336C301 -4.10295 317 21.4149 333 27.4191C349 33.4233 365 21.4149 380 15.4107C396 7.90546 412 7.90546 420 7.90546H428V143H420C412 143 396 143 380 143C365 143 349 143 333 143C317 143 301 143 285 143C269 143 254 143 238 143C222 143 206 143 190 143C174 143 159 143 143 143C127 143 111 143 95 143C79 143 63 143 48 143C32 143 16 143 8 143H0V46.9328Z"
        fill="url(#paint0_linear_0_1251)" stroke="#F2994A" />
    <defs>
        <linearGradient id="paint0_linear_0_1251" x1="214" y1="1" x2="214" y2="291.5" gradientUnits="userSpaceOnUse">
            <stop stop-color="#E5B369" />
            <stop offset="1" stop-color="#E5B369" />
        </linearGradient>
    </defs>
</svg>