<svg width="141" height="27" viewBox="0 0 141 27" fill="none" xmlns="http://www.w3.org/2000/svg">
    <path fill-rule="evenodd" clip-rule="evenodd"
        d="M0 9.41023L2.63551 6.93666C5.27103 4.73794 10.5421 0.065658 15.8131 1.16502C20.7547 2.26438 26.0257 9.41023 31.2967 11.0593C36.5678 12.9831 41.8388 9.41022 47.1098 9.95991C52.3808 10.5096 57.3224 15.1819 62.5935 17.6554C67.8645 19.8542 73.1355 19.8542 78.4065 15.7316C83.6776 11.8838 88.6192 3.63858 93.8902 1.7147C99.1612 0.065658 104.432 4.73794 109.703 5.8373C114.974 6.93666 120.245 4.73794 125.187 3.63858C130.458 2.26438 135.729 2.26438 138.364 2.26438H141V27H138.364C135.729 27 130.458 27 125.187 27C120.245 27 114.974 27 109.703 27C104.432 27 99.1612 27 93.8902 27C88.6192 27 83.6776 27 78.4065 27C73.1355 27 67.8645 27 62.5935 27C57.3224 27 52.3808 27 47.1098 27C41.8388 27 36.5678 27 31.2967 27C26.0257 27 20.7547 27 15.8131 27C10.5421 27 5.27103 27 2.63551 27H0V9.41023Z"
        fill="url(#paint0_linear_0_1123)" stroke="#E5B369" />
    <defs>
        <linearGradient id="paint0_linear_0_1123" x1="70.5" y1="1" x2="70.5" y2="54.1901"
            gradientUnits="userSpaceOnUse">
            <stop stop-color="white" />
            <stop offset="1" stop-color="#E5B369" />
        </linearGradient>
    </defs>
</svg>