<svg width="39" height="38" viewBox="0 0 39 38" fill="none" xmlns="http://www.w3.org/2000/svg">
<g filter="url(#filter0_d_0_1870)">
<ellipse cx="19.5" cy="15" rx="15.5" ry="15" fill="#F0F0F0"/>
</g>
<path d="M19.5001 6C17.1131 6 14.8239 6.94824 13.1361 8.63611C11.4482 10.324 10.5 12.6132 10.5 15.0002C10.5 19.971 14.5296 24 19.5001 24C21.887 24 24.1762 23.0518 25.864 21.364C27.5518 19.6761 28.5 17.387 28.5 15C28.5 12.6131 27.5518 10.3239 25.864 8.63605C24.1762 6.94822 21.887 6.00001 19.5001 6.00001V6ZM18.6061 10.2596C18.6067 10.0228 18.7011 9.79591 18.8687 9.62868C19.0364 9.46146 19.2635 9.36754 19.5002 9.36754C19.737 9.36754 19.9641 9.46146 20.1317 9.62868C20.2993 9.79591 20.3938 10.0228 20.3943 10.2596V12.9261C20.3938 13.1628 20.2993 13.3897 20.1317 13.5569C19.9641 13.7242 19.737 13.8181 19.5002 13.8181C19.2635 13.8181 19.0364 13.7242 18.8687 13.5569C18.7011 13.3897 18.6067 13.1628 18.6061 12.9261V10.2596ZM19.5001 19.5741C18.4328 19.5743 17.3992 19.2005 16.5789 18.5177C15.7585 17.8349 15.2033 16.8862 15.0098 15.8366C14.8162 14.787 14.9965 13.7027 15.5194 12.7722C16.0422 11.8417 16.8745 11.1238 17.8716 10.7433V12.3924C17.3021 12.7464 16.8633 13.2763 16.6218 13.902C16.3804 14.5276 16.3493 15.2149 16.5334 15.8597C16.7174 16.5046 17.1066 17.072 17.6419 17.4759C18.1773 17.8798 18.8296 18.0983 19.5002 18.0983C20.1708 18.0983 20.8232 17.8798 21.3585 17.4759C21.8939 17.072 22.283 16.5046 22.4671 15.8597C22.6511 15.2149 22.6201 14.5276 22.3786 13.902C22.1371 13.2763 21.6984 12.7464 21.1288 12.3924V10.7433C22.1259 11.1239 22.9581 11.8419 23.4808 12.7724C24.0035 13.7029 24.1838 14.7871 23.9902 15.8366C23.7966 16.8862 23.2415 17.8348 22.4212 18.5176C21.6009 19.2004 20.5674 19.5742 19.5001 19.5741Z" fill="#E5B369"/>
<defs>
<filter id="filter0_d_0_1870" x="0" y="0" width="39" height="38" filterUnits="userSpaceOnUse" color-interpolation-filters="sRGB">
<feFlood flood-opacity="0" result="BackgroundImageFix"/>
<feColorMatrix in="SourceAlpha" type="matrix" values="0 0 0 0 0 0 0 0 0 0 0 0 0 0 0 0 0 0 127 0" result="hardAlpha"/>
<feOffset dy="4"/>
<feGaussianBlur stdDeviation="2"/>
<feComposite in2="hardAlpha" operator="out"/>
<feColorMatrix type="matrix" values="0 0 0 0 0 0 0 0 0 0 0 0 0 0 0 0 0 0 0.25 0"/>
<feBlend mode="normal" in2="BackgroundImageFix" result="effect1_dropShadow_0_1870"/>
<feBlend mode="normal" in="SourceGraphic" in2="effect1_dropShadow_0_1870" result="shape"/>
</filter>
</defs>
</svg>
