<svg width="39" height="38" viewBox="0 0 39 38" fill="none" xmlns="http://www.w3.org/2000/svg">
<g filter="url(#filter0_d_0_1861)">
<ellipse cx="19.5" cy="15" rx="15.5" ry="15" fill="#F0F0F0"/>
</g>
<path fill-rule="evenodd" clip-rule="evenodd" d="M22.5004 16.0001H19.507H19.5V22H19.5019H27.0001V18.9995C27.0001 17.3498 24.9756 16.0001 22.5004 16.0001H22.5004Z" fill="#E5B369"/>
<path fill-rule="evenodd" clip-rule="evenodd" d="M19.4999 16.0001L19.5069 16C21.9893 15.9962 24.0003 13.9823 24.0003 11.4998C24.0003 9.01918 21.9935 7.00825 19.5146 7.00023C19.5097 7.00023 19.5048 7.00004 19.4999 7.00004V16.0001L19.4999 16.0001Z" fill="#E5B369"/>
<path fill-rule="evenodd" clip-rule="evenodd" d="M19.5002 16.0001V22H12V18.9995C12 17.3498 14.0253 16.0001 16.5005 16.0001H19.5002Z" fill="#E5B369"/>
<path fill-rule="evenodd" clip-rule="evenodd" d="M15.0008 11.4998C15.0008 13.9847 17.0156 16.0001 19.5007 16.0001H19.5007V7H19.5007C17.0156 6.99952 15.0008 9.01418 15.0008 11.4998Z" fill="#E5B369"/>
<defs>
<filter id="filter0_d_0_1861" x="0" y="0" width="39" height="38" filterUnits="userSpaceOnUse" color-interpolation-filters="sRGB">
<feFlood flood-opacity="0" result="BackgroundImageFix"/>
<feColorMatrix in="SourceAlpha" type="matrix" values="0 0 0 0 0 0 0 0 0 0 0 0 0 0 0 0 0 0 127 0" result="hardAlpha"/>
<feOffset dy="4"/>
<feGaussianBlur stdDeviation="2"/>
<feComposite in2="hardAlpha" operator="out"/>
<feColorMatrix type="matrix" values="0 0 0 0 0 0 0 0 0 0 0 0 0 0 0 0 0 0 0.25 0"/>
<feBlend mode="normal" in2="BackgroundImageFix" result="effect1_dropShadow_0_1861"/>
<feBlend mode="normal" in="SourceGraphic" in2="effect1_dropShadow_0_1861" result="shape"/>
</filter>
</defs>
</svg>
