<svg width="39" height="38" viewBox="0 0 39 38" fill="none" xmlns="http://www.w3.org/2000/svg">
    <g filter="url(#filter0_d_92_318)">
        <ellipse cx="19.5" cy="15" rx="15.5" ry="15" fill="#F0F0F0" />
    </g>
    <path
        d="M20 12.5H18V10.5H20V12.5ZM20 17H18V15H20V17ZM20 21.5H18V19.5H20V21.5ZM29 14V10C29 9.46957 28.7893 8.96086 28.4142 8.58579C28.0391 8.21071 27.5304 8 27 8H11C10.4696 8 9.96086 8.21071 9.58579 8.58579C9.21071 8.96086 9 9.46957 9 10V14C9.53043 14 10.0391 14.2107 10.4142 14.5858C10.7893 14.9609 11 15.4696 11 16C11 16.5304 10.7893 17.0391 10.4142 17.4142C10.0391 17.7893 9.53043 18 9 18V22C9 22.5304 9.21071 23.0391 9.58579 23.4142C9.96086 23.7893 10.4696 24 11 24H27C27.5304 24 28.0391 23.7893 28.4142 23.4142C28.7893 23.0391 29 22.5304 29 22V18C28.4696 18 27.9609 17.7893 27.5858 17.4142C27.2107 17.0391 27 16.5304 27 16C27 15.4696 27.2107 14.9609 27.5858 14.5858C27.9609 14.2107 28.4696 14 29 14V14Z"
        fill="#E5B369" />
    <defs>
        <filter id="filter0_d_92_318" x="0" y="0" width="39" height="38" filterUnits="userSpaceOnUse"
            color-interpolation-filters="sRGB">
            <feFlood flood-opacity="0" result="BackgroundImageFix" />
            <feColorMatrix in="SourceAlpha" type="matrix" values="0 0 0 0 0 0 0 0 0 0 0 0 0 0 0 0 0 0 127 0"
                result="hardAlpha" />
            <feOffset dy="4" />
            <feGaussianBlur stdDeviation="2" />
            <feComposite in2="hardAlpha" operator="out" />
            <feColorMatrix type="matrix" values="0 0 0 0 0 0 0 0 0 0 0 0 0 0 0 0 0 0 0.25 0" />
            <feBlend mode="normal" in2="BackgroundImageFix" result="effect1_dropShadow_92_318" />
            <feBlend mode="normal" in="SourceGraphic" in2="effect1_dropShadow_92_318" result="shape" />
        </filter>
    </defs>
</svg>